<?xml version="1.0" standalone="no"?>
<!DOCTYPE svg PUBLIC "-//W3C//DTD SVG 20010904//EN"
 "http://www.w3.org/TR/2001/REC-SVG-20010904/DTD/svg10.dtd">
<svg version="1.0" xmlns="http://www.w3.org/2000/svg"
 width="261.000000pt" height="261.000000pt" viewBox="0 0 261.000000 261.000000"
 preserveAspectRatio="xMidYMid meet">
<metadata>
Created by potrace 1.11, written by Peter Selinger 2001-2013
</metadata>
<g transform="translate(0.000000,261.000000) scale(0.100000,-0.100000)"
fill="#000000" stroke="none">
<path d="M294 2595 c-133 -42 -229 -134 -273 -260 -20 -59 -20 -79 -21 -1011
0 -610 3 -970 10 -1004 27 -144 144 -267 288 -304 53 -14 178 -16 1014 -16
1035 0 992 -2 1098 56 89 49 166 151 189 254 7 30 10 381 8 1020 l-2 975 -32
68 c-41 87 -114 159 -201 200 l-67 32 -985 2 c-779 1 -993 -2 -1026 -12z"/>
</g>
</svg>
